<mxfile host="www.draw.io" modified="2020-01-21T06:12:19.346Z" agent="Mozilla/5.0 (Windows NT 10.0; Win64; x64) AppleWebKit/537.36 (KHTML, like Gecko) Chrome/75.0.3770.142 Safari/537.36" etag="dLuFndKVRzPtw8xBNhXH" version="12.5.5" type="github">
  <diagram id="GSeuxdUgdALXQm2dhYr3" name="Page-1">
    <mxGraphModel dx="954" dy="616" grid="1" gridSize="10" guides="1" tooltips="1" connect="1" arrows="1" fold="1" page="1" pageScale="1" pageWidth="827" pageHeight="1169" math="0" shadow="0">
      <root>
        <mxCell id="0"/>
        <mxCell id="1" parent="0"/>
        <mxCell id="tkULib4JMn5Z1yGUqH1Y-1" value="sso2" style="ellipse;whiteSpace=wrap;html=1;aspect=fixed;" parent="1" vertex="1">
          <mxGeometry x="240" y="40" width="80" height="80" as="geometry"/>
        </mxCell>
        <mxCell id="uGIZJZpV3fwfNmWE2ggu-1" value="sso2" style="ellipse;whiteSpace=wrap;html=1;aspect=fixed;" vertex="1" parent="1">
          <mxGeometry x="120" y="160" width="40" height="40" as="geometry"/>
        </mxCell>
        <mxCell id="uGIZJZpV3fwfNmWE2ggu-2" value="cas" style="ellipse;whiteSpace=wrap;html=1;aspect=fixed;" vertex="1" parent="1">
          <mxGeometry x="200" y="160" width="40" height="40" as="geometry"/>
        </mxCell>
        <mxCell id="uGIZJZpV3fwfNmWE2ggu-3" value="uis" style="ellipse;whiteSpace=wrap;html=1;aspect=fixed;" vertex="1" parent="1">
          <mxGeometry x="320" y="160" width="40" height="40" as="geometry"/>
        </mxCell>
        <mxCell id="uGIZJZpV3fwfNmWE2ggu-4" value="mcs" style="ellipse;whiteSpace=wrap;html=1;aspect=fixed;" vertex="1" parent="1">
          <mxGeometry x="400" y="160" width="40" height="40" as="geometry"/>
        </mxCell>
        <mxCell id="uGIZJZpV3fwfNmWE2ggu-8" style="edgeStyle=orthogonalEdgeStyle;rounded=0;orthogonalLoop=1;jettySize=auto;html=1;" edge="1" parent="1" source="uGIZJZpV3fwfNmWE2ggu-5" target="tkULib4JMn5Z1yGUqH1Y-1">
          <mxGeometry relative="1" as="geometry"/>
        </mxCell>
        <mxCell id="uGIZJZpV3fwfNmWE2ggu-5" value="sso" style="ellipse;whiteSpace=wrap;html=1;aspect=fixed;dashed=1;" vertex="1" parent="1">
          <mxGeometry x="40" y="40" width="80" height="80" as="geometry"/>
        </mxCell>
        <mxCell id="uGIZJZpV3fwfNmWE2ggu-11" value="" style="endArrow=classic;html=1;exitX=0;exitY=1;exitDx=0;exitDy=0;entryX=1;entryY=0;entryDx=0;entryDy=0;" edge="1" parent="1" source="tkULib4JMn5Z1yGUqH1Y-1" target="uGIZJZpV3fwfNmWE2ggu-1">
          <mxGeometry width="50" height="50" relative="1" as="geometry">
            <mxPoint x="181" y="159" as="sourcePoint"/>
            <mxPoint x="200" y="108" as="targetPoint"/>
          </mxGeometry>
        </mxCell>
        <mxCell id="uGIZJZpV3fwfNmWE2ggu-12" value="" style="endArrow=classic;html=1;exitX=0.5;exitY=1;exitDx=0;exitDy=0;entryX=1;entryY=0;entryDx=0;entryDy=0;" edge="1" parent="1" source="tkULib4JMn5Z1yGUqH1Y-1" target="uGIZJZpV3fwfNmWE2ggu-2">
          <mxGeometry width="50" height="50" relative="1" as="geometry">
            <mxPoint x="260" y="320" as="sourcePoint"/>
            <mxPoint x="290" y="170" as="targetPoint"/>
          </mxGeometry>
        </mxCell>
        <mxCell id="uGIZJZpV3fwfNmWE2ggu-13" value="" style="endArrow=classic;html=1;exitX=0.5;exitY=1;exitDx=0;exitDy=0;entryX=0;entryY=0;entryDx=0;entryDy=0;" edge="1" parent="1" source="tkULib4JMn5Z1yGUqH1Y-1" target="uGIZJZpV3fwfNmWE2ggu-3">
          <mxGeometry width="50" height="50" relative="1" as="geometry">
            <mxPoint x="280" y="310" as="sourcePoint"/>
            <mxPoint x="270" y="160" as="targetPoint"/>
          </mxGeometry>
        </mxCell>
        <mxCell id="uGIZJZpV3fwfNmWE2ggu-14" value="" style="endArrow=classic;html=1;exitX=1;exitY=1;exitDx=0;exitDy=0;entryX=0;entryY=0;entryDx=0;entryDy=0;" edge="1" parent="1" source="tkULib4JMn5Z1yGUqH1Y-1" target="uGIZJZpV3fwfNmWE2ggu-4">
          <mxGeometry width="50" height="50" relative="1" as="geometry">
            <mxPoint x="370" y="330" as="sourcePoint"/>
            <mxPoint x="420" y="280" as="targetPoint"/>
          </mxGeometry>
        </mxCell>
      </root>
    </mxGraphModel>
  </diagram>
</mxfile>
